<svg xmlns="http://www.w3.org/2000/svg" viewBox="0 0 24 24" id="youtube">
  <path fill="#303c42" d="m20.934 3.674-1.899-.237a57.006 57.006 0 0 0-14.07 0l-1.899.237A3.506 3.506 0 0 0 0 7.147v9.703a3.506 3.506 0 0 0 3.066 3.473l1.899.237c2.326.291 4.693.438 7.035.438s4.709-.147 7.035-.438l1.899-.237A3.505 3.505 0 0 0 24 16.85V7.147a3.506 3.506 0 0 0-3.066-3.473z"></path>
  <path fill="#e53935" d="M23 16.85a2.504 2.504 0 0 1-2.19 2.481l-1.899.237a55.978 55.978 0 0 1-13.822 0l-1.899-.237A2.504 2.504 0 0 1 1 16.85V7.147c0-1.257.941-2.324 2.19-2.481l1.899-.237a55.978 55.978 0 0 1 13.822 0l1.899.237A2.505 2.505 0 0 1 23 7.147v9.703z"></path>
  <path d="m20.81 4.666-1.899-.237A55.704 55.704 0 0 0 12 4.001c2.112 0 4.223.143 6.309.428l1.734.237c1.14.156 1.999 1.223 1.999 2.481v9.703c0 1.258-.859 2.325-1.999 2.481l-1.734.237a46.48 46.48 0 0 1-6.309.428c2.313 0 4.626-.143 6.911-.428l1.899-.237A2.504 2.504 0 0 0 23 16.85V7.147a2.505 2.505 0 0 0-2.19-2.481z" opacity=".1"></path>
  <path fill="#fff" d="M3.957 19.331c-1.14-.156-1.999-1.223-1.999-2.481V7.147c0-1.258.859-2.325 1.999-2.481l1.734-.237A46.48 46.48 0 0 1 12 4.001c-2.313 0-4.626.143-6.911.428l-1.899.237A2.505 2.505 0 0 0 1 7.147v9.703c0 1.258.941 2.325 2.19 2.481l1.899.237c2.285.286 4.598.428 6.911.428a46.64 46.64 0 0 1-6.309-.428l-1.734-.237z" opacity=".2"></path>
  <path fill="#303c42" d="M9.771 7.078A.501.501 0 0 0 9 7.499v9a.501.501 0 0 0 .771.42l7-4.5a.499.499 0 0 0 0-.84l-7-4.501z"></path>
  <path fill="#fff" d="M10 15.583V8.415l5.575 3.584z"></path>
  <path d="M15.575 11.999 10 8.415l5.065 3.912z" opacity=".1"></path>
  <linearGradient id="a" x1="-.011" x2="24.011" y1="6.398" y2="17.6" gradientUnits="userSpaceOnUse">
    <stop offset="0" stop-color="#fff" stop-opacity=".2"></stop>
    <stop offset="1" stop-color="#fff" stop-opacity="0"></stop>
  </linearGradient>
  <path fill="url(#a)" d="m20.934 3.674-1.899-.237a57.006 57.006 0 0 0-14.07 0l-1.899.237A3.506 3.506 0 0 0 0 7.147v9.703a3.506 3.506 0 0 0 3.066 3.473l1.899.237c2.326.291 4.693.438 7.035.438s4.709-.147 7.035-.438l1.899-.237A3.505 3.505 0 0 0 24 16.85V7.147a3.506 3.506 0 0 0-3.066-3.473z"></path>
</svg>
